# xmcd
#
# Track frame offsets:
# 150
# 11997
# 33540
# 65711
# 84717
# 96264
# 116175
# 155372
# 182655
# 198904
# 221229
# 240266
# 266362
# 286700
# 310760
#
# Disc length: 4409 seconds
#
# Revision: 0
# Processed by: cddbd v1.5.2PL0 Copyright (c) Steve Scherf et al.
# Submitted via: Axialis_AX_CDPlayer 2.6
#
DISCID=d311370f
DTITLE=BB King and Friends - Blues My Love Vol. 1
DYEAR=1900
DGENRE=
TTITLE0=BB King - Never Trust A Woman
TTITLE1=BB King - Since I Met You Baby
TTITLE2=BB King - Sweet Little Angel
TTITLE3=BB King and Eric Clapton - Come Rain or Come Shine
TTITLE4=BB King and Eric Clapton - Hardline
TTITLE5=BB KIng and Eric Clapton - Riding With The King
TTITLE6=BB King and Eric Clapton - Three O'Clock Blues
TTITLE7=BB King and Etta James - There's Something On Your Mind
TTITLE8=BB King and Jimi Hendrix - Fast Blues
TTITLE9=BB King and Joe Cocker - Dangerous Mood
TTITLE10=BB King and T-Bone Walker - Muddy Waters
TTITLE11=BB King and Van Morrison - If You Love Me
TTITLE12=BB King and Willie Nelson - Night Life
TTITLE13=Jeff Beck,Jimmy Page Eric Clapton - Five Long Years
TTITLE14=BB King and Stevie Ray Vaughn - Frosty
EXTD=# 243
EXTT0=
EXTT1=
EXTT2=
EXTT3=
EXTT4=
EXTT5=
EXTT6=
EXTT7=
EXTT8=
EXTT9=
EXTT10=
EXTT11=
EXTT12=
EXTT13=
EXTT14=with Albert Collins
PLAYORDER=
